<svg xmlns="http://www.w3.org/2000/svg" width="1000" height="321" viewBox="0 0 1000 321"><path fill="#1A1F71" d="M756.3 62.2L688 259h-73.6l68.4-196.8zM585.3 62.2c-39 0-69.5 28.5-69.5 67.5 0 25.1 14.5 50.1 38.3 59.9l46.2 19.3c12 5.1 16.2 9.4 16.2 15.6 0 9.8-12.2 14.2-24.1 14.2-19.3 0-30.3-3.9-49.2-12.9l-8.9-4.7-9.5-4.8-11.8 45.4c12.7 6.4 34.6 10.5 57.3 10.5 42.6 0 71.9-27.1 71.9-69.4 0-22.3-11-44.5-38.3-57.8l-42.6-18.1c-10.4-4.2-14.7-8.1-14.7-14.7 0-8.1 9.3-12.8 21.2-12.8 15.6 0 27.2 4.1 39.4 10.2l7.1 3.5 8.2 3.8L658.7 67c-13.2-5.7-30.2-8.8-48-8.8zm-391.2 0l-102.3 196.8H16.8L1.8 191.7c33-6.6 57-12 57-12l16.8 40 46.2-96.1zm115 196.8h78.3L991.1 62.2h-75.1L824 165.8c-15-20.7-36-39.7-36-39.7s-50.6 40.5-67.5 58.1zm-324.9-38.3c-2.3 10.2 17.2 18.2 28.1 20.9l-6-24.1c-11.8.8-20.1 2.8-22.1 3.2zM874 62.2L771.8 196.8c18.2-22.7 51.1-59.5 70.8-78.7L938.9 62.2zM435.5 62.2L350.2 259h73.9l16.1-49.2h83.6l12.4 49.2h69.1l-84-196.8zm41.3 110.3H404l35.4-87.2z"/></svg>